<?xml version="1.0" encoding="utf-8"?>
<!-- Generator: Adobe Illustrator 16.0.0, SVG Export Plug-In . SVG Version: 6.00 Build 0)  -->
<!DOCTYPE svg PUBLIC "-//W3C//DTD SVG 1.1//EN" "http://www.w3.org/Graphics/SVG/1.1/DTD/svg11.dtd">
<svg version="1.1" id="Capa_1" xmlns="http://www.w3.org/2000/svg" xmlns:xlink="http://www.w3.org/1999/xlink" x="0px" y="0px"
	 width="198.667px" height="84.167px" viewBox="-9.458 -13.333 198.667 84.167"
	 enable-background="new -9.458 -13.333 198.667 84.167" xml:space="preserve">
<g>
	
		<rect x="-6.958" y="-10.833" fill="#2A2A2A" stroke="#FFFFFF" stroke-width="5" stroke-miterlimit="10" width="193.667" height="79.167"/>
</g>
<g>
	<path fill="#FFFFFF" d="M15.733,45.831c-1.598-0.466-3.062-1.325-4.271-2.537c-0.27-0.268-0.519-0.547-0.748-0.836
		c-1.319,2.351-0.982,5.373,1.016,7.37c1.997,1.997,5.023,2.334,7.369,1.016c-0.29-0.229-0.57-0.479-0.836-0.746
		C17.03,48.866,16.189,47.395,15.733,45.831z"/>
	<path fill="#FFFFFF" d="M33.821,25.188l-2.388,2.39c0.046,0.833,0.051,1.676,0.008,2.522c0.374-0.021,0.75-0.026,1.13-0.026
		c0.478,0,0.949,0.017,1.419,0.044l2.38-2.379l3.388,3.386c1.575,0.448,3.042,1.01,4.347,1.614
		c7.479-7.788,14.882-20.479,10.04-25.322C49.309,2.58,36.64,9.959,28.852,17.432c0.618,1.321,1.18,2.812,1.624,4.41L33.821,25.188z
		 M42.692,28.962l-3.771-3.773l2.549-2.549l3.551,3.549C44.292,27.117,43.518,28.044,42.692,28.962z M47.156,23.23l-3.141-3.14
		l2.549-2.551l2.525,2.525C48.523,21.092,47.876,22.153,47.156,23.23z M52.058,12.05c-0.095,1.198-0.532,2.778-1.291,4.594
		l-1.652-1.65L52.058,12.05z M49.507,9.499l-2.941,2.943l-1.649-1.651C46.729,10.032,48.309,9.594,49.507,9.499z M41.49,12.466
		l2.525,2.525l-2.55,2.549l-3.14-3.139C39.405,13.68,40.465,13.034,41.49,12.466z M35.368,16.54l3.551,3.551l-2.551,2.549
		l-3.772-3.773C33.512,18.039,34.44,17.264,35.368,16.54z"/>
	<path fill="#FFFFFF" d="M32.571,32.154c-0.441,0-0.889,0.015-1.336,0.044c-0.571,3.864-2.231,7.739-5.59,11.099
		c-1.894,1.896-4.413,2.938-7.092,2.938c-0.157,0-0.313-0.004-0.468-0.015c0.386,0.871,0.935,1.688,1.647,2.401
		c1.542,1.543,3.541,2.3,5.552,2.3c2.038,0,4.09-0.772,5.688-2.3c10.634-10.114,19.707-8.135,16.602-11.237
		C45.674,35.486,39.429,32.154,32.571,32.154z"/>
	<path fill="#FFFFFF" d="M18.551,44.151c2.034,0,4.066-0.775,5.62-2.327c10.027-10.028,3.104-24.737,0-27.841
		c-0.421-0.421-0.748-0.617-1.024-0.617c-1.766,0-1.471,8.023-10.215,17.218c-3.025,3.182-3.105,8.137,0,11.239
		C14.484,43.374,16.518,44.151,18.551,44.151z"/>
	<path fill="#FFFFFF" d="M70.808,46.75l-4.5-4.5v-27l4.5-4.5h27l-4.5,9h-18v18h22.5v9H70.808z"/>
	<path fill="#FFFFFF" d="M106.315,46.75l-4.5-4.5v-27l4.5-4.5h22.5l4.5,4.5v27l-4.5,4.5H106.315z M124.315,37.75v-18h-13.5v18
		H124.315z"/>
	<path fill="#FFFFFF" d="M138.323,46.75v-36h27l4.5,4.5v9l-2.25,4.5l2.25,4.5v9l-4.5,4.5H138.323z M160.823,24.25v-4.5h-13.5v4.5
		H160.823z M160.823,37.75v-4.5h-13.5v4.5H160.823z"/>
</g>
</svg>
